<svg xmlns="http://www.w3.org/2000/svg" viewBox="0 0 1200 800" width="1200" height="800"><g transform="translate(-386.0 -213.0) rotate(0.0 986.5 612.5) scale(1.0 1.0)"><svg width="1973" height="1225" viewBox="0 0 1973 1225"><g><path fill="#FFF" d="M550.39 712.5h98.05q0-8.98-5.47-10.16-1.56-.39-4.3-.39h-12.11l-91.4-223.82h-24.22L425 701.95h-25v10.55h71.09q0-8.98-5.46-10.16-1.96-.39-4.3-.39h-20.7l28.51-75h78.91l29.29 75h-26.95v10.55ZM508.2 523.83l35.16 91.4h-69.92l34.76-91.4Zm342.19 178.51h-15.23V545.31h-66.41v9.77h23.44l-.39 94.14q-1.96 31.25-22.66 43.75-7.81 4.3-15.62 4.3-25.79 0-29.69-29.3-.78-5.08-.78-10.16v-112.5h-67.97v9.77h25v96.48q.39 64.46 55.86 64.85 31.64 0 50.39-26.57 3.9-5.86 6.64-11.71l1.95 34.37h64.85q0-8.98-5.08-9.77-1.96-.39-4.3-.39Zm31.25-73.04q0 53.51 40.24 75.78 20.7 11.33 47.65 11.33 40.63 0 62.11-25.78 6.64-7.82 10.16-17.19l-10.16-2.74q-12.11 25.78-40.62 32.43-7.43 1.95-15.63 1.95-46.09-.78-46.48-75.78 0-71.49 31.64-78.91 4.68-.78 8.98-.78 18.36 0 22.66 16.02.78 3.51 1.56 10.54 2.73 17.19 9.38 21.88 5.07 3.12 12.89 3.51 17.57 0 21.87-13.67.78-3.12.78-5.86 0-17.58-21.48-30.47-19.92-11.72-47.66-11.72-43.75 0-68.36 30.47-19.53 23.83-19.53 58.99Zm168.75-82.82v10.16h26.95V658.2q3.52 56.64 52.74 58.6 30.86 0 41.8-24.61 3.9-8.6 6.25-20.71l-10.55-1.56q-8.6 34.77-27.74 35.16-16.4 0-19.14-22.27-.39-3.9-.39-7.81V556.64H1175v-10.16h-54.69v-45.31l-42.97 8.21v37.1h-26.95Zm331.64 155.86h-15.23V545.31h-66.41v9.77h23.44l-.39 94.14q-1.96 31.25-22.66 43.75-7.81 4.3-15.62 4.3-25.78 0-29.69-29.3-.78-5.08-.78-10.16v-112.5h-67.97v9.77h25v96.48q.39 64.46 55.86 64.85 31.64 0 50.39-26.57 3.91-5.86 6.64-11.71l1.95 34.37h64.85q0-8.98-5.08-9.77-1.95-.39-4.3-.39Zm124.22 0h-28.52v-84.76q2.74-37.5 21.1-50.39 4.3-2.74 7.42-2.74 5.08 0 10.16 8.99 6.64 12.5 14.06 14.84 3.51 1.17 7.42 1.17 14.06 0 19.92-13.67 1.96-4.3 1.96-8.98 0-18.75-18.36-23.44-4.69-1.17-9.38-1.17-23.83 0-42.58 19.53-8.2 8.98-12.89 20.31l-2.34-36.72h-64.45v9.77h24.61v126.17q0 16.8-11.72 19.92-5.08 1.17-12.89 1.17v10.16h105.86q0-8.98-5.86-9.77-1.57-.39-3.52-.39Z"/></g></svg></g></svg>